<svg width="34" height="34" viewBox="0 0 34 34" fill="none" xmlns="http://www.w3.org/2000/svg">
<path d="M20.06 33.2396H25.1383C29.8096 33.2396 33.5996 29.4522 33.5996 24.7783V8.70346C33.5996 4.03213 29.8122 0.242188 25.1383 0.242188H20.0341C19.9148 0.242188 19.8189 0.338102 19.8189 0.457348V32.9959C19.8189 33.1307 19.9278 33.237 20.06 33.237V33.2396ZM26.3463 15.0546C28.1894 15.0546 29.6826 16.5478 29.6826 18.3909C29.6826 20.234 28.1894 21.7272 26.3463 21.7272C24.5032 21.7272 23.01 20.234 23.01 18.3909C23.01 16.5478 24.5032 15.0546 26.3463 15.0546ZM5.74011 10.1422C5.74011 11.8557 7.12959 13.2452 8.8431 13.2452C10.5566 13.2452 11.9461 11.8557 11.9461 10.1422C11.9461 8.42868 10.5566 7.0392 8.8431 7.0392C7.12959 7.0392 5.74011 8.42868 5.74011 10.1422ZM16.2752 0.244779H9.06344C4.39212 0.244779 0.602173 4.03213 0.602173 8.70605V24.7809C0.602173 29.4522 4.38952 33.2422 9.06344 33.2422H16.2752C16.41 33.2422 16.5163 33.1333 16.5163 33.0011V0.485863C16.5163 0.353656 16.4074 0.244779 16.2752 0.244779ZM13.8566 30.5799H9.06344C7.51325 30.5799 6.05638 29.9759 4.96242 28.8819C3.86588 27.788 3.26447 26.3311 3.26447 24.7809V8.70605C3.26447 7.15586 3.86847 5.69898 4.96242 4.60503C6.05897 3.50849 7.51584 2.90707 9.06344 2.90707H13.8566V30.5825V30.5799Z" fill="#191919"/>
</svg>
