<?xml version="1.0" standalone="no"?>
<!DOCTYPE svg PUBLIC "-//W3C//DTD SVG 20010904//EN"
 "http://www.w3.org/TR/2001/REC-SVG-20010904/DTD/svg10.dtd">
<svg version="1.0" xmlns="http://www.w3.org/2000/svg"
 width="34.000000pt" height="28.000000pt" viewBox="0 0 34.000000 28.000000"
 preserveAspectRatio="xMidYMid meet">

<g transform="translate(0.000000,28.000000) scale(0.100000,-0.100000)"
fill="#000000" stroke="none">
<path d="M130 155 c0 -69 4 -125 9 -125 5 0 16 -3 25 -6 14 -5 16 7 16 100 0
106 16 149 22 59 2 -37 7 -49 22 -51 23 -5 36 14 36 54 0 38 -24 61 -84 79
l-46 14 0 -124z"/>
<path d="M53 109 c-59 -23 -65 -35 -27 -49 37 -14 84 -12 84 3 0 9 -11 12 -32
10 l-33 -3 33 15 c17 8 32 22 32 30 0 8 -1 15 -2 14 -2 0 -27 -9 -55 -20z"/>
<path d="M208 113 c-10 -2 -18 -11 -18 -20 0 -11 6 -14 23 -9 12 4 35 9 51 13
47 10 22 -13 -29 -27 -25 -7 -45 -19 -45 -26 0 -18 5 -18 78 7 37 13 62 27 62
35 0 26 -69 41 -122 27z"/>
</g>
</svg>
