<svg width="33" height="32" viewBox="0 0 33 32" fill="none" xmlns="http://www.w3.org/2000/svg">
<path d="M16.5671 12.6238C16.5846 12.6238 16.6065 12.6387 16.6187 12.6492C21.329 16.2324 29.3941 25.0946 26.9352 27.5981C24.1649 30.0228 20.5379 31.4919 16.5671 31.4919C12.5962 31.4919 8.96925 30.0228 6.19892 27.5981C3.73923 25.0946 11.8043 16.2315 16.5146 12.6492C16.5268 12.6387 16.5487 12.6238 16.5671 12.6238ZM24.7722 2.29676C22.3597 0.863468 19.746 -0.00805664 16.5671 -0.00805664C13.3881 -0.00805664 10.7744 0.863468 8.36199 2.29676C8.33398 2.31251 8.32261 2.34576 8.33573 2.37463C8.34886 2.40351 8.38036 2.40876 8.41186 2.40176C11.4613 1.74287 16.0946 4.37669 16.5338 4.64095C16.5435 4.64707 16.554 4.6532 16.5671 4.6532C16.5802 4.6532 16.5907 4.64707 16.6003 4.64095C17.0396 4.37669 21.672 1.74287 24.7223 2.40176C24.7538 2.40876 24.7853 2.40351 24.7984 2.37463C24.8124 2.34576 24.8002 2.31251 24.7722 2.29676ZM5.54178 4.51144C5.51553 4.52457 5.49278 4.54382 5.47178 4.56482C2.5982 7.4174 0.81665 11.3716 0.81665 15.7424C0.81665 19.3309 2.01718 22.6358 4.03761 25.2845C4.05687 25.3099 4.09362 25.3265 4.12162 25.3099C4.14874 25.2941 4.15049 25.2591 4.13999 25.2285C2.93946 21.5167 9.07775 12.517 12.2488 8.74394C12.2602 8.73081 12.2698 8.71594 12.2698 8.69843C12.2698 8.67568 12.2576 8.65906 12.2427 8.64593C7.43796 3.86743 5.80691 4.37494 5.54178 4.51144ZM32.3175 15.7424C32.3175 11.3716 30.536 7.41827 27.6624 4.56482C27.6414 4.54382 27.6186 4.52457 27.5924 4.51144C27.3273 4.37494 25.6962 3.86743 20.8923 8.64593C20.8775 8.65906 20.8652 8.67568 20.8652 8.69843C20.8652 8.71594 20.8757 8.73081 20.8862 8.74394C24.0564 12.517 30.1956 21.5167 28.9951 25.2285C28.9846 25.2591 28.9863 25.2941 29.0134 25.3099C29.0414 25.3265 29.0782 25.3099 29.0974 25.2845C31.1179 22.6358 32.3184 19.33 32.3184 15.7424" fill="#191919"/>
</svg>
