<svg width="41" height="42" viewBox="0 0 41 42" fill="none" xmlns="http://www.w3.org/2000/svg">
<g filter="url(#filter0_d_402_58784)">
<path d="M15 22.18L17.82 25L8.82 34H16V38H2V24H6V31.18L15 22.18ZM17.82 15L15 17.82L6 8.82V16H2V2H16V6H8.82L17.82 15ZM25 22.18L34 31.18V24H38V38H24V34H31.18L22.18 25L25 22.18ZM22.18 15L31.18 6H24V2H38V16H34V8.82L25 17.82L22.18 15Z" fill="#F5F5F5"/>
<path d="M10.9324 33.125L18.4387 25.6187C18.7804 25.277 18.7804 24.723 18.4387 24.3813L15.6187 21.5613C15.277 21.2196 14.723 21.2196 14.3813 21.5613L6.875 29.0676V24C6.875 23.5168 6.48325 23.125 6 23.125H2C1.51675 23.125 1.125 23.5168 1.125 24V38C1.125 38.4832 1.51675 38.875 2 38.875H16C16.4832 38.875 16.875 38.4832 16.875 38V34C16.875 33.5168 16.4832 33.125 16 33.125H10.9324ZM18.4387 15.6187C18.7804 15.277 18.7804 14.723 18.4387 14.3813L10.9324 6.875H16C16.4832 6.875 16.875 6.48325 16.875 6V2C16.875 1.51675 16.4832 1.125 16 1.125H2C1.51675 1.125 1.125 1.51675 1.125 2V16C1.125 16.4832 1.51675 16.875 2 16.875H6C6.48325 16.875 6.875 16.4832 6.875 16V10.9324L14.3813 18.4387C14.723 18.7804 15.277 18.7804 15.6187 18.4387L18.4387 15.6187ZM29.0676 33.125H24C23.5168 33.125 23.125 33.5168 23.125 34V38C23.125 38.4832 23.5168 38.875 24 38.875H38C38.4832 38.875 38.875 38.4832 38.875 38V24C38.875 23.5168 38.4832 23.125 38 23.125H34C33.5168 23.125 33.125 23.5168 33.125 24V29.0676L25.6187 21.5613C25.277 21.2196 24.723 21.2196 24.3813 21.5613L21.5613 24.3813C21.2196 24.723 21.2196 25.277 21.5613 25.6187L29.0676 33.125ZM21.5613 14.3813C21.2196 14.723 21.2196 15.277 21.5613 15.6187L24.3813 18.4387C24.723 18.7804 25.277 18.7804 25.6187 18.4387L33.125 10.9324V16C33.125 16.4832 33.5168 16.875 34 16.875H38C38.4832 16.875 38.875 16.4832 38.875 16V2C38.875 1.51675 38.4832 1.125 38 1.125H24C23.5168 1.125 23.125 1.51675 23.125 2V6C23.125 6.48325 23.5168 6.875 24 6.875H29.0676L21.5613 14.3813Z" stroke="#191919" stroke-width="1.75" stroke-linejoin="round"/>
</g>
<defs>
<filter id="filter0_d_402_58784" x="0.25" y="0.25" width="40.25" height="41" filterUnits="userSpaceOnUse" color-interpolation-filters="sRGB">
<feFlood flood-opacity="0" result="BackgroundImageFix"/>
<feColorMatrix in="SourceAlpha" type="matrix" values="0 0 0 0 0 0 0 0 0 0 0 0 0 0 0 0 0 0 127 0" result="hardAlpha"/>
<feOffset dx="0.75" dy="1.5"/>
<feComposite in2="hardAlpha" operator="out"/>
<feColorMatrix type="matrix" values="0 0 0 0 0.0980392 0 0 0 0 0.0980392 0 0 0 0 0.0980392 0 0 0 1 0"/>
<feBlend mode="normal" in2="BackgroundImageFix" result="effect1_dropShadow_402_58784"/>
<feBlend mode="normal" in="SourceGraphic" in2="effect1_dropShadow_402_58784" result="shape"/>
</filter>
</defs>
</svg>
